# xmcd CD database file
#
# Track frame offsets:
#	150
#	21326
#	37720
#	54704
#	65209
#	79752
#
# Disc length: 1298 seconds
#
# Revision: 0
# Processed by: cddbd v1.5.2PL0 Copyright (c) Steve Scherf et al.
# Submitted via: CDex 1.70
#
DISCID=4a051006
DTITLE=Roger Engel - Set Free
DYEAR=2008
DGENRE=Country
TTITLE0=Magic Of A Slow Dance
TTITLE1=You Know How To Get To Me By Heart
TTITLE2=Up Here In My Deer Stand
TTITLE3=Honky Tonk Zoo
TTITLE4=What On Earth Has Happened To Our World
TTITLE5=Mad At Me
EXTD=YEAR: 2008
EXTT0=
EXTT1=
EXTT2=
EXTT3=
EXTT4=
EXTT5=
PLAYORDER=
